<mxfile host="app.diagrams.net" modified="2022-03-29T05:37:20.838Z" agent="5.0 (Windows NT 10.0; Win64; x64) AppleWebKit/537.36 (KHTML, like Gecko) Chrome/99.0.4844.82 Safari/537.36" etag="7T76yTEFezSQKdSzUOP7" version="16.6.4" type="github">
  <diagram id="nelpiIDygyD88M4jMt8x" name="第 1 页">
    <mxGraphModel dx="862" dy="462" grid="1" gridSize="10" guides="1" tooltips="1" connect="1" arrows="1" fold="1" page="1" pageScale="1" pageWidth="827" pageHeight="1169" math="0" shadow="0">
      <root>
        <mxCell id="0" />
        <mxCell id="1" parent="0" />
        <mxCell id="g5UBsaeHSASh9P4BZcx4-5" value="" style="rounded=0;whiteSpace=wrap;html=1;fontSize=12;" vertex="1" parent="1">
          <mxGeometry x="250" y="70" width="380" height="180" as="geometry" />
        </mxCell>
        <mxCell id="g5UBsaeHSASh9P4BZcx4-1" value="核减" style="rounded=0;whiteSpace=wrap;html=1;" vertex="1" parent="1">
          <mxGeometry x="290" y="180" width="150" height="50" as="geometry" />
        </mxCell>
        <mxCell id="g5UBsaeHSASh9P4BZcx4-2" value="风控" style="rounded=0;whiteSpace=wrap;html=1;" vertex="1" parent="1">
          <mxGeometry x="290" y="90" width="150" height="50" as="geometry" />
        </mxCell>
        <mxCell id="g5UBsaeHSASh9P4BZcx4-3" value="计算平均广告数&lt;br&gt;(&lt;span&gt;如果是第一天，则将有效的用户全部计算平均广告数，如果是次日或者第三日，则只将活跃用户计算平均广告数，)&lt;/span&gt;" style="rounded=0;whiteSpace=wrap;html=1;" vertex="1" parent="1">
          <mxGeometry x="287.5" y="290" width="155" height="120" as="geometry" />
        </mxCell>
        <mxCell id="g5UBsaeHSASh9P4BZcx4-6" value="风控和核减都会将邀请用户设置为无效，不会参与平均广告数的计算" style="text;html=1;strokeColor=none;fillColor=none;align=center;verticalAlign=middle;whiteSpace=wrap;rounded=0;fontSize=12;container=1;" vertex="1" parent="1">
          <mxGeometry x="480" y="90" width="130" height="120" as="geometry" />
        </mxCell>
      </root>
    </mxGraphModel>
  </diagram>
</mxfile>
